<?xml version="1.0" encoding="UTF-8"?>
<svg xmlns="http://www.w3.org/2000/svg" xmlns:xlink="http://www.w3.org/1999/xlink" viewBox="0 0 96 96" width="96px" height="96px">
<g id="surface88987387">
<path style=" stroke:none;fill-rule:nonzero;fill:rgb(100%,100%,100%);fill-opacity:1;" d="M 48 9 C 26.460938 9 9 26.460938 9 48 C 9 66.414062 21.769531 81.839844 38.933594 85.929688 C 38.042969 85.71875 37.164062 85.480469 36.300781 85.210938 L 36.300781 76.273438 C 36.300781 76.273438 34.835938 76.761719 32.886719 76.761719 C 27.433594 76.761719 25.164062 71.894531 24.601562 69.449219 C 24.257812 67.960938 23.359375 66.550781 22.398438 65.6875 C 21.246094 64.660156 20.707031 64.65625 20.699219 64.304688 C 20.683594 63.570312 21.6875 63.601562 22.164062 63.601562 C 24.601562 63.601562 26.449219 66.195312 27.304688 67.535156 C 29.429688 70.84375 31.714844 71.398438 32.886719 71.398438 C 34.351562 71.398438 35.613281 71.179688 36.484375 70.761719 C 36.886719 67.929688 38.144531 65.40625 40.199219 63.601562 C 31.054688 61.773438 24.601562 56.527344 24.601562 48 C 24.601562 43.609375 26.363281 39.570312 29.300781 36.3125 C 29 35.460938 28.5 33.742188 28.5 30.9375 C 28.5 29.085938 28.628906 26.8125 29.476562 24.601562 C 29.476562 24.601562 35.035156 24.640625 40.28125 29.605469 C 42.703125 28.902344 45.292969 28.5 48 28.5 C 50.707031 28.5 53.296875 28.902344 55.71875 29.605469 C 60.964844 24.640625 66.523438 24.601562 66.523438 24.601562 C 67.375 26.8125 67.5 29.085938 67.5 30.9375 C 67.5 33.960938 67.097656 35.722656 66.851562 36.484375 C 69.699219 39.710938 71.398438 43.6875 71.398438 48 C 71.398438 56.527344 64.945312 61.773438 55.800781 63.601562 C 58.242188 65.746094 59.699219 68.871094 59.699219 72.375 L 59.699219 85.210938 C 58.835938 85.480469 57.957031 85.71875 57.066406 85.929688 C 74.230469 81.839844 87 66.414062 87 48 C 87 26.460938 69.539062 9 48 9 Z M 50.71875 86.894531 C 49.820312 86.957031 48.914062 87 48 87 C 48.914062 87 49.820312 86.957031 50.71875 86.894531 Z M 56.679688 86.019531 C 54.933594 86.417969 53.144531 86.695312 51.316406 86.851562 C 53.144531 86.695312 54.933594 86.414062 56.679688 86.019531 Z M 48 87 C 47.085938 87 46.179688 86.957031 45.28125 86.894531 C 46.179688 86.957031 47.085938 87 48 87 Z M 44.683594 86.851562 C 42.855469 86.695312 41.066406 86.417969 39.320312 86.019531 C 41.066406 86.414062 42.855469 86.695312 44.683594 86.851562 Z M 44.683594 86.851562 "/>
</g>
</svg>
